<svg width="40" height="40" viewBox="0 0 40 40" fill="none" xmlns="http://www.w3.org/2000/svg">
<path d="M20 3.33337C11.7283 3.33337 5 10.0617 5 18.3334C5 23.88 8.03333 28.72 12.5217 31.3167L9.07667 33.6134C8.77916 33.8118 8.55334 34.1006 8.43256 34.4371C8.31179 34.7737 8.30247 35.1402 8.40597 35.4825C8.50948 35.8247 8.72032 36.1247 9.00736 36.3379C9.2944 36.5512 9.64242 36.6664 10 36.6667H30C30.3577 36.6668 30.706 36.5518 30.9933 36.3387C31.2806 36.1255 31.4917 35.8256 31.5955 35.4833C31.6992 35.1409 31.69 34.7743 31.5692 34.4375C31.4485 34.1008 31.2226 33.8118 30.925 33.6134L27.48 31.3167C31.9667 28.72 35 23.88 35 18.3334C35 10.0617 28.2717 3.33337 20 3.33337ZM20 30C13.5683 30 8.33333 24.765 8.33333 18.3334C8.33333 11.9017 13.5683 6.66671 20 6.66671C26.4317 6.66671 31.6667 11.9017 31.6667 18.3334C31.6667 24.765 26.4317 30 20 30Z" fill="#FBF6FF"/>
<path d="M19.9993 10C15.4043 10 11.666 13.7383 11.666 18.3333C11.666 22.9283 15.4043 26.6667 19.9993 26.6667C24.5943 26.6667 28.3327 22.9283 28.3327 18.3333C28.3327 13.7383 24.5943 10 19.9993 10ZM17.4993 18.3333C17.1709 18.3332 16.8458 18.2684 16.5424 18.1427C16.239 18.0169 15.9634 17.8326 15.7312 17.6003C15.2624 17.1311 14.9991 16.4949 14.9993 15.8317C14.9995 15.5033 15.0643 15.1781 15.19 14.8747C15.3158 14.5713 15.5001 14.2957 15.7324 14.0636C16.2016 13.5947 16.8378 13.3314 17.501 13.3317C18.1643 13.3319 18.8003 13.5956 19.2691 14.0647C19.738 14.5339 20.0012 15.1701 20.001 15.8333C20.0008 16.4966 19.7371 17.1326 19.2679 17.6014C18.7988 18.0703 18.1626 18.3336 17.4993 18.3333Z" fill="#FBF6FF"/>
</svg>
