<svg width="40" height="40" viewBox="0 0 40 40" fill="none" xmlns="http://www.w3.org/2000/svg">
<path d="M5 8.33333V31.6667C5 32.5507 5.35119 33.3986 5.97631 34.0237C6.60143 34.6488 7.44928 35 8.33333 35H31.6667C32.5507 35 33.3986 34.6488 34.0237 34.0237C34.6488 33.3986 35 32.5507 35 31.6667V8.33333C35 7.44928 34.6488 6.60143 34.0237 5.97631C33.3986 5.35119 32.5507 5 31.6667 5H8.33333C7.44928 5 6.60143 5.35119 5.97631 5.97631C5.35119 6.60143 5 7.44928 5 8.33333V8.33333ZM16.6667 11.6667H30V15H16.6667V11.6667ZM16.6667 18.3333H30V21.6667H16.6667V18.3333ZM16.6667 25H30V28.3333H16.6667V25ZM10 11.6667H13.3333V15H10V11.6667ZM10 18.3333H13.3333V21.6667H10V18.3333ZM10 25H13.3333V28.3333H10V25Z" fill="#FBF6FF"/>
</svg>
