<svg width="40" height="40" viewBox="0 0 40 40" fill="none" xmlns="http://www.w3.org/2000/svg">
<path d="M10 36.6667H31.6667C32.5507 36.6667 33.3986 36.3155 34.0237 35.6904C34.6488 35.0653 35 34.2174 35 33.3334V6.66671C35 5.78265 34.6488 4.93481 34.0237 4.30968C33.3986 3.68456 32.5507 3.33337 31.6667 3.33337H8.33333C7.44928 3.33337 6.60143 3.68456 5.97631 4.30968C5.35119 4.93481 5 5.78265 5 6.66671V33.3334C5 34.2174 5.35119 35.0653 5.97631 35.6904C6.60143 36.3155 7.44928 36.6667 8.33333 36.6667H10ZM20 8.33171C22.745 8.33171 25 10.5834 25 13.3317C25 16.0784 22.745 18.3334 20 18.3334C17.255 18.3334 15 16.0784 15 13.3317C15 10.5834 17.255 8.33171 20 8.33171V8.33171ZM10 28.75C10 25.0517 14.5083 21.25 20 21.25C25.4917 21.25 30 25.0517 30 28.75V30H10V28.75Z" fill="#FBF6FF"/>
</svg>
