<svg width="40" height="40" viewBox="0 0 40 40" fill="none" xmlns="http://www.w3.org/2000/svg">
<path d="M36.6654 13.3333C36.6655 13.0308 36.5831 12.734 36.427 12.4749L31.912 4.94992C31.6146 4.45799 31.1956 4.05087 30.6953 3.76774C30.195 3.4846 29.6302 3.33498 29.0554 3.33325H10.942C9.7787 3.33325 8.6837 3.95325 8.08537 4.95159L3.57036 12.4749C3.41428 12.734 3.33187 13.0308 3.33203 13.3333C3.33203 15.0083 3.97537 16.5233 4.9987 17.6966V33.3333C4.9987 33.7753 5.17429 34.1992 5.48685 34.5118C5.79941 34.8243 6.22334 34.9999 6.66537 34.9999H19.9987C20.4407 34.9999 20.8647 34.8243 21.1772 34.5118C21.4898 34.1992 21.6654 33.7753 21.6654 33.3333V24.9999H28.332V33.3333C28.332 33.7753 28.5076 34.1992 28.8202 34.5118C29.1328 34.8243 29.5567 34.9999 29.9987 34.9999H33.332C33.7741 34.9999 34.198 34.8243 34.5105 34.5118C34.8231 34.1992 34.9987 33.7753 34.9987 33.3333V17.6966C36.022 16.5233 36.6654 15.0083 36.6654 13.3333V13.3333ZM33.3054 13.7516C33.2028 14.5564 32.8106 15.2963 32.2019 15.8329C31.5933 16.3694 30.8101 16.6658 29.9987 16.6666C28.1604 16.6666 26.6654 15.1716 26.6654 13.3333C26.6654 13.2199 26.6237 13.1199 26.6004 13.0133L26.6337 13.0066L25.3654 6.66659H29.0554L33.3054 13.7516V13.7516ZM16.677 13.4416L18.0304 6.66659H21.9654L23.3204 13.4416C23.262 15.2299 21.7987 16.6666 19.9987 16.6666C18.1987 16.6666 16.7354 15.2299 16.677 13.4416V13.4416ZM10.942 6.66659H14.632L13.3654 13.0066L13.3987 13.0133C13.3737 13.1199 13.332 13.2199 13.332 13.3333C13.332 15.1716 11.837 16.6666 9.9987 16.6666C9.18735 16.6658 8.40409 16.3694 7.79546 15.8329C7.18684 15.2963 6.79456 14.5564 6.69203 13.7516L10.942 6.66659ZM16.6654 26.6666H9.9987V21.6666H16.6654V26.6666Z" fill="#FBF6FF"/>
</svg>
